<svg xmlns="http://www.w3.org/2000/svg" xml:space="preserve" id="Слой_1" x="0" y="0" viewBox="0 0 400 400"><style>.st0{fill:#1f1e1a}</style><path d="M106.5 104.4c-1.2.1-2.4 0-3.5-.4-.2-.1-.5 0-.6.2v.2c-.2 1.6.7 3 2.2 3.6.2.1.5 0 .6-.2s0-.5-.2-.6c-.7-.4-1.3-1.1-1.5-1.9 1 .4 2.1.4 3.2.1.3 0 .5-.3.4-.6-.1-.2-.4-.4-.6-.4m.3-6.6c.5 1 .7 2 .7 3.1-.1.8-.8 1.1-2.3 1.1-.2.1-.4.3-.4.5s.2.3.4.4c1.3.5 2.8-.2 3.3-1.5 0-.1.1-.2.1-.4.1-1.3-.3-2.5-1-3.6-.2-.5-1.1-.3-.8.4m-3.5-.7c-1 0-1 2.5 0 2.5s1-2.5 0-2.5m6.4-.6c-1 0-1 2.5 0 2.5s1-2.5 0-2.5m-5.9-2.1c.5-.2.6-.8-.2-1.2-.9-.4-1.9-.2-2.6.5-.8.8-.5 1.6 0 1.6.4-.1.7-.2.9-.5.9-.6 1-.2 1.9-.4m4.7-1.6c-1.5.2-2 1.3-1.6 1.8s.8.1 1.2-.1.6-.4 1.7 0c1.4 0 1-2-1.3-1.7M58 52c23.7-4.5 42.3-7 54-7.3 14.8-.4 17.6 3.4 21 9.9S140.2 68 163.8 68c11.7 0 28.2-1.7 52-6 .2 0 .3-.2.2-.4 0 0 0-.1-.1-.1l-8.5-10.4 6.7-12.9c.1-.1 0-.3-.1-.4h-.2c-99.6 15.7-36.2-28.6-90.4-28-21.2.6-42.4 2.9-63.2 7.1-.4 0-.2-2-2.7 34.7-.1.1 0 .3.1.4.2.1.3.1.4 0m172.5 116.3c1.3.6 2.7.4 3.8-.6.6-.5 1-1.2 1.1-2-.1-.3-.3-.4-.6-.4-1.3.3-2.7-.4-3.3-1.6-.1-.2-.3-.3-.5-.2s-.3.3-.2.5c.5 1.4 1.9 2.4 3.4 2.3-.7 1.2-2.1 1.7-3.4 1.2-.2 0-.4.3-.3.5q-.15.15 0 .3m5.4-7.1c.2.1.5 0 .5-.3s0-.5-.3-.5c-3.4-1.5-1.8-2.9 1.5-4.5.7-.4.3-.9-.2-.8-1.6.5-4.5 2-4.4 3.8.2 1.4 2.2 2.1 2.9 2.3" class="st0"/><path d="M234 156c.8.7 2.6-1.3 1.7-2s-2.5 1.3-1.7 2m3.7 1.1c-1.2 1.4.1 2.5 1.3 1.1s-.1-2.5-1.3-1.1m2.7-2.5c.6.4 1.1 1.1 1.3 1.8.1.4.5.6.8.5s.5-.4.5-.7c0-1.3-.8-2.5-2-2.9-.3-.1-.7 0-.9.4s-.1.6.3.9m88.1 68.6c.3-1.7 0-2-.2-2-.2-.1-.4-.1-.5 0-1.3.8-2.9 1-4.4.4-.6-.2-.8.7-.3.8 1.4.7 3 .7 4.4 0-.2 1.9-.9 2.7-2.5 2.9-.5 0-.6.9.2.9 1.8.1 3.2-1.2 3.3-3m-4.8-4.8c.4.6 1 1.2 1.6 1.5.2.1.5-.1.5-.3.1-.2 0-.3-.1-.4-.4-.3-.8-.7-1.1-1.2.6-.6 1.2-1.4 1.6-2.2.1-.2 0-.4-.2-.5-.5-.3-.5.4-2.1 2-.4.4-.4.7-.2 1.1m.5-3c.6-1.7-1-2.2-1.6-.5s1 2.2 1.6.5m5.6 1.6c.6-1.7-1-2.2-1.6-.6s1 2.3 1.6.6m.2-2.7c.4.1.7.4.8.8.1.3.4.4.7.3.2-.1.3-.3.3-.5-.2-1.4-2-2.3-3-1.3-.2.2-.2.5 0 .7.1.1.3.1.4.1.3-.1.3-.3.8-.1m-202.5 87.3c-13.9-10.6-29.2-19.3-45.3-26-8.7-3.1-17.2-6.9-25.4-11.1-8.5-4.7-23.5-14.5-29.5-27.5-2.1-4.1-2.7-8.7-1.8-13.2 0-.2-.2-.5-.4-.5s-.4.1-.4.3c-1.1 4.7-.6 9.6 1.6 13.8 6.4 14.7 23.1 24.9 30 28.6 7.7 4 15.8 7.4 24 10.3 16.5 7 32.1 16 46.5 26.7 18.7 14.3 28.6 24.8 46.1 59.5 1.2 2.3 2.5 4.9 4.6 8.8.1.2.3.4.6.3.2-.1.4-.3.3-.6v-.1c-16.5-32.6-23.8-48.6-50.9-69.3" class="st0"/><path d="M381.6 284.5c-.1-.2-.3-.3-.5-.4-.8-.2-.9-.3-1.9-1.4q-.6-.75-1.5-1.2c-1.4-5.1-3.1-10.1-5.2-15-6.6-15.6-15.4-25.5-27.4-31.3 1.7-1.8 1.6-4.7-.3-6.4-.5-.5-1.1-.8-1.7-1-1.8-.9-2.8-1.8-2.7-2.4 0-1.4 5-1.6 5.8-5.5.5-2.5-.8-4.9-3-6-1.5-1-2.8-2.2-3.5-6.6 0-1.8-1.1-3.4-2.8-4-1.7-.4-3.4 0-4.7 1.1-.4-.9-1.1-1.6-2-2-2-.8-4.3-.1-5.5 1.7-3 3.2-7.5.7-10.4 4.9-1.3 2-1.3 4.5.2 8.3.8 2 .6 3.1-2.3 4.3-2.2.9-3.8 2.8-4.3 5.2-.3 2.5.7 5.1 2.7 6.7-6.6 2-12.5 5.5-17.4 10.3-6.9-3-18.8-1.5-21.8-3.3-.6-1.1-1.7-1.9-3-2-.2-.6-.2-1.2-.3-1.9.8-.3 1.6-.7 1.6-1.1-1.3-22.5-5.3-56.5-26.5-63.9-.3-.7-.8-1.2-1.4-1.6v-.2c1.8 1.4 4.4-.3 4.4-2.7 2.6.3 5.2-1.2 6.1-3.7 1.7 3.2 5.3-.5 3.2-6.1-.9-2.6-3.3-5.1-6.3-4.5-.8.2-1.2-.6-.2-.9 3-.6 6 1.2 7.1 4.1.2.6 2.1 0 1.1-3.5-.7-2.1-2.4-3.7-4.6-4.2-1.9-.5-3.9-.3-5.7.4-1 .3-.9-.3-.5-.5 1.1-.6 2.4-1 3.6-.9.3 0 .4-.3.2-.5-1.2-1.2-2.8-1.9-4.5-2-3.5-.1-7.7 2.3-8 5.7-.4.2-.7.3-1.1.5-.4-.1-.9-.1-1.3 0s-.6.5-.5.8c0 .1.1.2.1.3-2.2 1.7-4 4-5 6.6-1.6 0-3.4 1.6-3.5 5.5-1.4.8-2.3 2.4-2.1 4-18 1-30.8.7-46.7-3.4-.5-1.6-1.2-1.7-1.3-2s.4-1.5 0-2c-.1-.1-.3-.2-.5-.2-.4 0-.8.3-1.1.6-1.1-1.4-2-2.2-2.6-2.1-.2 0-.4.1-.5.3-.2.4-.2.8 0 1.1l-.5-.3c-1.4-.7-2.2 0-1.3 1.5-.6 0-1 .2-1 .7s.6 1.4 1.5 2c-.6.1-1.2.3-1.3.8-.2 1.1 1.7 1.4 2.8 1.4.8.8 1.7 1.3 2.8 1.5-.4.8-.6 1.6-.8 2.4-.1.1-.1.3 0 .4 11.3 11.8 26.4 19.2 42.7 20.9v.6c-6.7 1.9-12.2 6.9-14.6 13.5-11.9-1.2-22.9 1.5-30.3 7.2-6 4.7-10 12-11.6 22-8.8-2.8-9.3-2.2-17.4-4.3 3.5-22.8 0-43.9-10.1-59.5 4.2-3 7-7.5 7.9-12.5 0-.1 0-.3-.1-.4-4.6-4.1-8.7-8.8-12-14 12.6 5.2 16.8 4.4 31.4 14.4.1.1.3.1.4 0 .4-.2.8-.5 1.2-.8.4.5.9.9 1.4 1.3.5 2.1 2.5 3.2 2.5 1.4.5.5 1.3 1.1 1.7.5.2-.3.3-.7.1-1.1 1.1.5 2-.2.9-1.7q.3 0 .6-.3c.5-.8-.7-1.6-1.4-2.2.6-.4 1.3-1 1.4-1.5 0-.3-.1-.6-.4-.7-.7-.4-1.1.5-2.8.3s-.9.6-.6-1.5v-.3c-11.1-16.2-33.2-42.2-53-42.2-.6 0-1 0-1 .4h-1.4c0-.4-.1-.9-.2-1.3 4.7-2.9 4.8-9.9 3.3-15 5.2-7.2-2.6-15.7-8.4-11-1.7-4-7.2-2.5-9.4 1.4-4 .7-6.7 4.4-6.1 8.4.2 1.3.8 2.6 1.7 3.6-2.5 2.3-.9 6.7 2 7.8-.5 4.5 3.7 6.3 6.2 4.5.1.6.1 1.2.1 1.8-7.6 0-20.6 2.3-45.1-5.1-.2-.1-.5 0-.6.3v.1h-.2c-.4-.9-1.1-1.7-2-2.2l5.8-86c0-.2-.1-.4-.3-.5-.7-.3-1.5-.4-2.2-.2-.2.1-.4.3-.4.6l-6 86.7c-1.2 0-1.6.9-1.1 1.7-.5.4-.5 1-.2 1.5.1.1.2.2.3.2-.4.4-.4 1 0 1.4-.1.5.1 1 .5 1.3l-7.2 102.5c-8.6 1.5-16.9 4.2-20.1 13.7-8 24.2 23.2 61.2 33.5 73.4 32 38 40.6 39.1 48.5 55.1 5.2 11.1 8.2 23.1 8.8 35.3.1.2.3.4.5.4s.3-.2.4-.4c-.4-12.5-3.3-24.8-8.5-36.2-7.6-15.4-18.3-19.5-48.6-55.5-17.7-21-40.4-51.2-33.4-72 2.8-8.3 9.5-11.1 18.8-12.8l-1.3 18.6c0 .5.3.9.7 1 .6.2 1.3.2 2 .2.5-.1.8-.5.9-.9l1.3-19.4c9.1-1 18.4-.9 27.5.3 2 9.1 6 17.6 11.6 25.1.1.1.2.2.3.2 1 .2 1.9.4 2.9.6.6 1.2 1.4 2.4 2.2 3.5-2 1.1-6.9 4-5.5 5.9s7.1 1 10.5.3c1.9-.4 4.1-1.2 4.3-2.1.2-1.8 0-3.5-.7-5.2-1.4-8-2.3-16-2.5-24.1 10 2.4 21.2 6.1 31.2 9.3 5.1 14.2 6 20.9 6.4 21.1 3.2 3.6 9 5.7 11.3 4.9.7-.2 1.2-.8 1.2-1.6 0-2.9-3.8-6-5.3-7.2.2-1 .2-2.1.3-3.1.8-.2 1.6-.6 2.3-1 .2-.2.2-.1.2-.3.5-2.5 1-5.1 1.3-7.6 8.1 2 8.5 1.5 17.3 4.3-1 7.4-1.1 14.9-.4 22.3-1.4-.1-2 .4-2 1.8-.3 4.3 1.1 4.7 3.5 5.1 0 .9 0 2 .1 2.8-2.2.8-8.3 3.3-7.4 6.3.5 1.5 2.5 2.2 5.7 2 3.8-.2 8.8-1.7 9-2.6.4-1.5.4-3.1-.1-4.6 0-.9.3-2.6.3-3.6.4 0 1.8-.4 2-.8.6-1.5 1.1-4 0-5.3 3.9-4.6 7.2-9.6 9.7-15.1 6.4 3 13.2 6.6 20.3 10.7.1 13.7 4.2 27.1 11.6 38.7-1 .8-.5 2.3-.3 3.1s1.4 3.3 2.6 3.7c.9.1 1.7.1 2.6 0 .9 1.3 1.9 2.4 3 3.5-7.1 8.1-3.8 11.7 2.3 8.2 2.8-1.6 5.1-3.8 6.9-6.5.1-.1.1-.3 0-.4-.4-1.5-1.2-2.9-2.3-4-.5-1.3-1-2.6-1.6-3.8.4-.3.8-.6 1.1-.9.1-.1.1-.2.1-.4.1-2.1-.6-4.1-2.1-5.6 0-2.7 0-14.3-.5-21 14.3 9.7 32.8 23.7 42.5 34.3 7.2 8 14.9 15.6 23 22.7.5 8.4 1.7 16.7 3.6 24.8-4.1 1.5-7.1 3.7-7.4 5.7-.1.6.2 1.3.7 1.7 2.6 2 11.7-.4 13.8-2.8.6-.6.4-.8.7-3.1.6-4.4 1.6-8.8 3.2-13 12.7 11.4 28.5 25.3 44.8 39.2.2.2 1.6.1.7-.6-17.4-15-29.6-26-45-39.8 2.1-6.3 4-12.5 3.3-19.2 4.4 2.8 9.4 4.7 14.6 5.5 2.8 15.4 10.9 27.5 25.6 38.2-.3 7.1.7 10.7 2.9 11 4 .5 6-11.1 4.5-13.1-3.8-4.6-2.7-11.7-6.3-24.5-1.1-5-3.3-9.7-6.2-13.8 3.3-1.2 6.6-2.7 9.7-4.4.1 0 .2-.2.2-.3-1-15.5-4.6-42.8-11.5-48 2.4-2.3 3.9-5.3 4.2-8.6 6 5.1 14.2 8.5 20.8 14 2.5 2 4.8 4.3 6.8 6.9.1.3.2.7.1 1-.1.7 0 1.5.1 2.2.2.6.3 1.3.1 2-.5 1.3 1.7 1.5 2.4-.7.4.9.9 2.7 1.8 2.5.4 0 .6-.6.6-1.7.4.3.9.5 1.4.5.8 0 1.3-.7 1.2-1.2s-.5-.5-.9-.7v-.8c1.2-.2 1.7-1.2 1.4-1.7m-213.7-130c-.3.3-.7.6-1.1.7-.3 0-.5.3-.4.6 0 .1.1.3.2.3.3.3 1.3.9 1.6 1.3-.3-.1-.6-.2-.9-.4q-.3-.3-.6 0c-.5.6 1.1 1.5 1.4 2.2-.5-.2-.9-.6-1.3-.9q-.3-.3-.6 0t0 .6c.3.4.5.8.6 1.3-.5-.4-.9-.8-1.3-1.2-.2-.2-.4-.2-.6-.1-.1.1-.2.3-.1.5.1.3.1.6.2 1-.4-.4-.7-1-.8-1.6 0-.5-.6-.3-1.6-1.5.8-.7 1.5-1.6 2-2.5 1.4-.2 1.4.5 3.3-.3m-56.4-43.7c17.8.3 38.5 22.8 52.7 41.7-.7 2.1-2 4-3.9 5.3-14-11.1-28-11.6-37.6-17.5-.7-.5-1.1.3-.6.8 1.6 1 3.3 1.9 5 2.6 2.9 5.9 7.2 11.1 12.5 15.1-1.7 8.6-10.7 13.8-14.7 15.7-13.6-14.3-18-35.2-13.4-63.7m-18.4-6.9c.1-.2-.1-.5-.3-.5-2.1-.6-4-4.8-1.6-6.7.2-.2.3-.4 0-.8-2.3-2.9-1.9-7.1 1-9.4.8-.7 1.8-1.1 2.8-1.3.1 0 .3-.1.3-.2 1.8-3.3 7-4.8 8.1-1.2.1.2.3.4.5.3.1 0 .2-.1.2-.1 4.9-4.2 11.6 2.4 8 8.8-.3-.9-.6-1.9-1-2.8l.6-.4q.3-.3 0-.6c-.2-.2-.4-.2-.6-.1-3.6 2.9-7.1.7-10-1.9-.3-.2-.7-.1-.8.4-.3 1.7-.4 2.6-2.7 3.6-.3.1-.3.5-.1 1.3.7 2.2.5 4.6-.5 6.6-.8-.3-1.7-.2-2.4.4-2.3 2 0 6.5 2.8 5.6.4.9.6 1.8.8 2.7-1.9 1.4-5.5.2-5.1-3.7m5.1.5.5-.5c.1-.2.1-.5-.1-.6s-.5-.1-.6.1c-.3.5-.9.7-1.4.6-1.3-.3-2.1-1.7-1.8-3 .1-.4.3-.7.6-1 .4-.4 1.1-.5 1.6-.2.2.1.4 0 .6-.1 1.7-2.3 2-5.4.9-8 1.5-.4 2.7-1.7 2.8-3.3 3.1 2.9 6.4 3.7 9.2 2.2 3 7.7 2.9 17.4-5.2 18.7-.2 0-.4.2-.4.4s.2.4.4.4c1-.1 2.1-.3 3-.7 0 .4.1.8.2 1.3 0 .2.2.4.4.4.6.1 1.2.2 1.8.2l-.1.8c-6 12.6-8.7 14.9-10 14.6s-2.1-3.1-1.1-15c.1-2.5-.2-5-1.3-7.3m-44.5 1.9c9.9 3.3 20.3 5.2 30.8 5.6 6.3.2 10.5-.3 13.8-.4-9.1 21.6-10.4 42.7-5.3 62.4-6 .2-10.9-2.6-14.8-8.4.3-1.8 4.2-26.9 12-42.1.2-.2.2-.5-.1-.7-.2-.2-.5-.2-.7.1l-.1.1c-1.4 2.8-2.7 5.7-3.9 8.6-10.9-2.6-24.6-10.8-32.9-19.7.7-1.9 1.1-3.7 1.2-5.5m-5.5-1c.4-2.6 2.8-1.8 4 .7l.8.3c0 .9-.2 1.7-.3 2.6l-.7-.1h-.1c-.6.5-1.3.7-2 .6l.1-2c.2.4.6.7 1 .7.1 0 .1-.1.1-.2l-.1-.1c-.7 0-1.2-.9-1.5-2.6 0-.2-.3-.2-.3 0-.1.9-.8 2.8-1.1 2 0-.6 0-1.3.1-1.9m-.2 4.2c-.7 0-1.2-.3-.9-.9.5.2 1.1.2 1.7 0 .7.4 0 1-.8.9m.2-4.9c-.1.3-.2.7-.2 1-2-.1-1.7-1.9.2-1m-.3 1.3v1c-1.9.3-1.9-1.7 0-1m-1.2 2c0-.6.7-.6 1.3-.5 0 .2.3.4.5.4.1 0 .1 0 .1-.1.2.1.2.3.1.5l-.1.1c-.5.4-1.9.2-1.9-.4M70.4 212c-9-1.1-18.1-1.2-27.2-.3l7-101.7q.6 0 1.2-.3c-.1.8 0 1.6.3 2.3 7.6 9.1 22 18.3 33.4 20.1-4.1 10.7-6.8 21.9-8 33.4v.3c1.2 2.2 2.9 4.2 4.9 5.8-10.4 10.6-14.7 25.8-11.6 40.4m24.9 30c-1.9 1.4-4.4 1.7-6.5.6-.6-1.1-1.2-2.2-2-3.2 2.7.2 5.5-.4 7.9-1.8 0 1.5.2 3 .6 4.4m-1.5-25.8c0-5.3.8-12.7 3.9-18 1.6-2.8 5.1-6.7 7.7-6.5 5.7.5 15.7 24.4 19.1 33.6-9.8-3.3-20.7-6.8-30.7-9.3zm43.8 28c-1.4.9-3.3.9-6.1 0-.1-1.1-.4-2.2-.8-3.2 2.3.6 4.7.7 7.1.3-.1.9-.2 1.8-.2 2.7zm2.8-5c-3.2 1.5-6.8 1.8-10.1.7-3.4-13.5-16-48.5-24.8-49.2-1.7 0-3.4.6-4.7 1.8-12 10.1-8 34.1-6.7 42 .2 1 .3 1.9.3 2.2-3.5 1.7-7.5 2.2-11.3 1.2-16.2-22.8-16.3-47.8 0-65.4 3.1 2.1 6.9 3 10.7 2.5.3 0 .4-.2.4-.5v-.1c-.7-2.4-1.2-5-1.7-7.6 10.1 3.6 18.8 4 25.9 1.2 1.8 2.8 3.9 5.4 6.2 7.9.1.1.4.1.5 0 2.5-1 4.8-2.3 7-3.9 10.6 18.2 13.4 40.8 8.4 67v.2zm27.2 30.3c-1.5 1.2-3.7 1-4.9-.5-.1-.1-.2-.3-.3-.4 0-.7 0-1.9-.1-2.8 1.9.3 3.7.4 5.6.2-.1.9-.2 2.5-.3 3.3zm2.4-5.2c-2.8 1.1-7.5.2-9.3 0-1.5-.3-2.2-.5-2-4 0-.7 0-.9 1.2-.7 3.3.9 6.7 1.1 10.1.6.8.7.5 2.8 0 4.1m72.4-92.4c-1.2 2.9-3.9 5-7 5.4-.2-.9-.2-1.7-.3-2.6 1.7-.1 3.4-.6 4.8-1.6.7-.6 1.2-1.3 1.5-2.2.4.2.7.6 1 1m4.5-13.1c1.3 1.5 3 2.4 5 2.6l.1.6c-1 2.4-3.3 4-5.8 4-.4-.7-1.2-1.1-2-1-.2-2.4.8-4.7 2.7-6.2m-10.7-6.3c.3.2.6.4.7.8.2.3.6.4 1 .2.6-.4.2-1.4-.3-2 .3-.2.7-.4 1-.5 4.6.2 3.2 2.7 7.3 4.1-.1 1 .1 1.9.5 2.8-2.4 1.6-3.7 4.5-3.2 7.3-.4.2-.3 1.1.5.8.5-.2 1.1-.1 1.5.3.2.6.1 1.2-.2 1.8-.3.9-1.3 1.3-2.1.9-.4-.1-.7-.4-.9-.7-.2-.2-.5-.2-.6 0-.1.1-.2.3-.1.5l.1.2c-.4.5-.7 1.1-1 1.7-.2.6-.6 1.1-1.1 1.5-1.4.9-3 1.4-4.7 1.5-.2 0-.3.1-.4.3-.3-.2-.6-.3-.9-.4 0-.2 0-.4-.2-.7.6-.2 1.1-.5 1.6-.9 2.1.1 3.9-1.4 4-3.5v-.9c1.1-1.7.7-3.9-1-5-.6-.4-1.4-.6-2.2-.6-.5-1.1-1.6-1.9-2.9-1.9-.4-.7-1-1.2-1.7-1.4 1.2-2.5 3-4.6 5.3-6.2m-9.1 12.4c.2-.1.3-.2.3-.4.6-5.4 3.3-5.8 4.8-3.6.3.4 1.5-.1 2.8 2 .1.1.3.2.5.2 1-.2 2.1.3 2.6 1.3.6.9.6 2.1 0 3-.1.2-.1.3-.1.5.2 1.7-1 3.2-2.7 3.4h-1c-1.6 1.4-4 1.2-5.4-.4-.1-.1-.2-.2-.2-.3-.1-.2-.2-.4-.5-.4-1.2.3-2.3-.5-2.6-1.7v-.3c-.2-1.2.4-2.5 1.5-3.3m5.1 8.4c-.7.5-1.4 1.1-2 1.7-.4-.7-.7-1.5-.7-2.3.8.4 1.8.6 2.7.5zm-59.6-7.6c-.2-.2-.3-.1-.5-.1-.6 0-1.3-.1-1.8-.4.5-.2 1.1-.2 1.6-.2.3 0 .5-.2.4-.5 0-.1-.1-.3-.2-.4-1.2-.6-2.2-1.5-2.2-1.7.6.1 1.1.4 1.6.7.2.1.5.1.6-.1s.1-.5-.1-.6c-.6-.5-1.1-1-1.5-1.7.8.4 1.6.9 2.3 1.5.2.2.5.1.6-.1q.15-.3 0-.6c-.4-.5-.7-1.1-.9-1.7.7.6 1.3 1.2 1.8 2-.1.3-.1.5-.1.8-1 .5-1.4 1.7-.8 2.7.1.2.3.4.5.6.2.1.4 0 .5-.2.1-.1.1-.3 0-.4-.5-.6 0-1.5.6-2 .1-.1.2-.2.2-.4 0-.5.1-1 .4-1.4-.5 2.2.5 1.6 1.3 3.5-.6.6-1.2 1.3-1.7 2-.9-.1-1.9-.6-2.6-1.3m28.3 88c-6.9-4-13.5-7.4-19.8-10.4q2.25-5.25 3.6-10.8c2 .4 12.6 2.4 18.7.6-1.5 6.8-2.4 13.7-2.5 20.6m2.3-47.7c3-5.9 8-10.4 14.2-12.8.2-.1.3-.2.3-.4.2-5.8 1.7-11.6 4.3-16.8.1-.2 0-.5-.2-.6s-.5 0-.6.2c-2.9 4.5-4.5 9.8-4.5 15.2-15.8-2.1-30.4-9.2-41.8-20.4.6-1.7 1.5-3.3 2.7-4.7 14 4 29.4 5.2 47.1 3.5.5 1.4 1.8 2.2 3.3 2 .2.3.4.6.7.9-.2 1.4.3 2.9 1.2 4 .2.2.5.2.6.1l.1-.1.7-.6.2.2c-3.6 6.8-5.5 14.3-5.7 22 0 .3.1.6.3.8 1.1 1.6 2.4 2.9 4 4 .3.3.8.2 1.1-.1 1.1-1.5 1.9-3.2 2.6-4.9.1-.3.1-.5 0-.8-1.3-6.8-1.4-13.7-.4-20.5.3 0 .6-.1.9-.2.1.6.2 1.3.5 1.9.1.2.3.3.4.3 3.5-.2 6.7-2.4 8-5.7 20.3 7.5 24.2 40.7 25.8 62.7-2.2 1-4.7 1.1-6.9.2-3-7.9-7-15.4-12-22.3-2.8-4-5.4-8.1-7.7-12.4-.1-.2-.4-.3-.6-.2s-.3.4-.2.6c1.9 3.8 4 7.5 6.4 11-1 7.3-3.5 12-8 15.2-7.6-11.6-21.2-19.6-36.8-21.3m64.8 34.4c.1.8.1 1.5-.1 2.3 0-.2-.2-.4-.5-.4-.1 0-.2.1-.3.2l-.1.2v-.6c0-.2-.2-.4-.4-.4s-.4.2-.4.4c-.1.6.2 2-.5 2s-.3-1.1-.2-1.6c0-.2-.1-.4-.4-.5-.2 0-.3.1-.4.2 0 .1-.1.3-.2.5s-.2 1.5-.6 1.3 0-.8 0-1.3c0-1.3.1-2-.3-2.2s-.9.6-1.3 1-.6 0-.4-.2.4-.4.4-.7c.2-.8.7-1.5 1.4-2 .1-.1.2-.3.2-.5 0-.4-.1-.9-.2-1.3 1.1.2 2.3.1 3.4-.1 0 .5.1 1 .2 1.5-1 .1-1.5 1.2.7 2.2m-41.5 61.8c-1.6 2.5-3.1 2.5-5 1.7-.8-1.2-1.8-2.3-2.8-3.4 2.2-.4 4.2-1.1 6.2-2.1.5 1.3 1 2.6 1.6 3.8m-2-10.2c.9 1.3 1.5 2.9 1.5 4.5-2.7 2.4-9.8 3.6-10.8 3.3-.8-.8-1.5-1.9-1.8-3-.4-1.2-.5-1.7.1-2 4 .7 7.9-.3 11-2.8m75.7 60.8c-1.6.8-3.4 1.4-5.2 1.6-.6 0-2 .1-2.1-.5s.3-1.1 1.2-1.5c.2-.1.4-.4.4-.6-1.5-7.8-6-34-.8-45.3 3.8 4.9 8.4 9.1 13.5 12.6.4 13.6-5.7 21.3-7 33.7m-10.4-51.5v.3c1 1.4 2 2.7 3 4-2.4 4-3.4 10.6-3.1 19.9-9.5-8.9-15.3-14.7-22-22.2-12-13.3-36.2-30-43.5-34.9-.8-7 16.5-30.1 15.9-40.1 4.9-2.4 8-7.7 8.5-14.8 4.7 7.2 9.1 13.5 12.6 22.6.1.3 1.3.7 1.7.7.2 1 .3 1.4.3 1.4-.5.3-.9.8-1.2 1.3-.6.9-.3 1.5-.8 2-.3.3-.4.7-.1 1.1.5.6 1.5.2 2.1-.3v2c.1 1.2 1.1 1.5 1.8.1.4 1.3 1.3 1.2 1.7.3.8.3 1.7.3 2.6 0 5.6 4.6 10.3 11.3 17.1 14.5 6 2.8 12.9 2.5 21.2-1.1.5 2.8 1.2 5.6 2 8.3-9.4 9.8-16.2 21.8-19.8 34.9m17.3-54c-.5 3.3-.4 6.7.2 10-8.1 3.4-14.6 3.7-20.4.9-6.9-3.2-11.8-10-17.4-14.2-.4-.2-.5.1-1.4.2.4-.5.7-1.2.7-1.9.3.5.7.8 1.3.9.6.2.8-.6.3-.8-.7-.3-1.1-1.1-.9-1.9 0-.2-.1-.4-.3-.5-.6-.2-1.1-.5-1.6-.8.8 0 2.8.6 3 1.7 0 .1.1.2.2.3 3.5 2.5 18 .1 24.4 4.9.5.4 1.1-.3.5-.8-.5-.4-1-.7-1.5-1 6.2-5.8 14-9.7 22.3-11.1-2.9 2.7-8.4 8.4-9.4 14.1m13-14.7c2-.2 2.2 0 2.3-.9 0-.2.2-1.5.3-2.1.9.4 1.9.7 2.9.8.2 0 .5-.1.5-.4 0-.2-.1-.5-.4-.5-8.2-1.5-6.3-10-3.2-17.8h.7c-.6.2-1.2.8-.8 1.2.2.2.5.2.7 0 .4-.4 1.1-.4 1.6 0 .1.2.4.4.6.3.6-.3.2-1.5-1.1-1.7 1.8-.1 3.6-.8 5.1-2 .8 3 2.8 5.5 5.6 6.8.3 2.2-.5 4.3-2.2 5.8-2.9 2.4-1.7 7.9.7 10.5.1.1.1 0 1.6.3-6.3 10.1-17 10.5-14.9-.3m22.1 91c5.1 7.2 7.3 17.9 8.7 26.6q.6 4.95 2.4 9.6c-.7 4-2.6 7.1-4 3.2-.3-.8-9.2-6.2-16.8-17.4-4.1-6.1-7-12.9-8.5-20 6.2.7 12.4-.1 18.2-2m37.7-35.7c-.5-.2-1-.4-1.3-.8 0-.2-.1-.4-.1-.6-.3-.7-.9-.3-.8.2.1.4.3.9.3 1.3s-.3.8-.5.4c-.4-.8-.7-1.9-.9-2.2s-.8-.6-1 .4c0 .6-.3 1.1-.7 1.5.3-1.3-.6-2.4-.3-4.2.1-.6 0-1.2-.3-1.7-2-2.6-4.3-5-6.9-7-7.2-6-16.9-10.6-21.7-14.8-8.8-7.7-9.4-25.5-6.5-26.6 1.6.6 3.2 1.2 4.8 2 13.5 6.6 21.6 17.7 27.6 31.3 2.1 4.9 3.9 9.8 5.4 14.9 0 .2.2.3.3.3.5.1 1 1.2 2 2-.3 0-.4.4-.3.8s.1.6.2.9c-.4-.5-1-.1-.7.4.4.6.9 1 1.6 1.1.3.1.1.5-.2.4m0-2.8c-.2-.6-.3-.3.6 0z" class="st0"/></svg>