<svg xmlns="http://www.w3.org/2000/svg" viewBox="0 0 400 400" id="Team-Success-4--Streamline-Milano" height="400" width="400"><desc>Team Success 4 Streamline Illustration: https://streamlinehq.com</desc><g fill="#000000"><path d="M106.46 104.44a8.5 8.5 0 0 1 -3.54 -0.4 0.44 0.44 0 0 0 -0.6 0.4A3.34 3.34 0 0 0 104.54 108a0.44 0.44 0 0 0 0.4 -0.8 3.52 3.52 0 0 1 -1.54 -1.9 5.4 5.4 0 0 0 3.18 0.14 0.46 0.46 0 0 0 -0.12 -1zm0.34 -6.66a7.04 7.04 0 0 1 0.68 3.06c-0.1 0.82 -0.76 1.1 -2.26 1.1a0.46 0.46 0 0 0 0 0.9 2.58 2.58 0 0 0 3.42 -1.88 6 6 0 0 0 -1.02 -3.6c-0.26 -0.48 -1.08 -0.28 -0.82 0.42zm-3.46 -0.7c-1 0 -1.02 2.48 0 2.48s1 -2.48 0 -2.48zm6.32 -0.56c-1 0 -1 2.48 0 2.48s1 -2.48 0 -2.48zm-5.84 -2.08c0.54 -0.16 0.62 -0.82 -0.18 -1.2a2.3 2.3 0 0 0 -2.58 0.52c-0.82 0.8 -0.52 1.56 0 1.56a1.8 1.8 0 0 0 0.94 -0.5c0.76 -0.62 0.88 -0.18 1.82 -0.38zm4.7 -1.64c-1.52 0.22 -2 1.32 -1.58 1.76s0.78 0.12 1.16 -0.12 0.58 -0.38 1.68 0c1.4 0.06 1.02 -1.94 -1.26 -1.64zM58 52c23.68 -4.52 42.28 -6.98 54 -7.3 14.82 -0.38 17.58 3.38 21.02 9.9S140.18 68 163.76 68c11.66 0 28.2 -1.72 52 -6a0.3 0.3 0 0 0 0.18 -0.48l-8.46 -10.44 6.74 -12.86a0.3 0.3 0 0 0 -0.32 -0.44c-99.6 15.66 -36.18 -28.64 -90.4 -28a377.14 377.14 0 0 0 -63.18 7.08c-0.36 0 -0.24 -2 -2.74 34.74a0.3 0.3 0 0 0 0.42 0.4zm172.48 116.26a3.52 3.52 0 0 0 3.78 -0.56 2.86 2.86 0 0 0 1.12 -2 0.5 0.5 0 0 0 -0.56 -0.4 3.08 3.08 0 0 1 -3.3 -1.6 0.42 0.42 0 0 0 -0.56 -0.22 0.4 0.4 0 0 0 -0.24 0.52 3.54 3.54 0 0 0 3.4 2.34 2.84 2.84 0 0 1 -3.42 1.2 0.42 0.42 0 0 0 -0.22 0.72zm5.4 -7.1a0.42 0.42 0 1 0 0.26 -0.8c-3.36 -1.46 -1.82 -2.86 1.48 -4.52 0.68 -0.36 0.26 -0.94 -0.16 -0.84 -1.56 0.5 -4.48 2 -4.36 3.8 0.1 1.52 2.14 2.2 2.78 2.36z" stroke-width="2"></path><path d="M234 156c0.84 0.72 2.58 -1.34 1.74 -2s-2.52 1.34 -1.74 2zm3.74 1.1c-1.16 1.38 0.12 2.46 1.28 1.1s-0.12 -2.46 -1.28 -1.1zm2.62 -2.48a3.3 3.3 0 0 1 1.26 1.78 0.7 0.7 0 0 0 1.38 -0.18 3.08 3.08 0 0 0 -2 -2.92 0.68 0.68 0 0 0 -0.9 0.42c-0.24 0.38 -0.1 0.62 0.26 0.9zm88.18 68.58c0.28 -1.72 0 -2 -0.16 -2a0.44 0.44 0 0 0 -0.54 0 4.98 4.98 0 0 1 -4.38 0.44c-0.58 -0.2 -0.82 0.68 -0.34 0.84a5 5 0 0 0 4.4 0c-0.2 1.9 -0.88 2.72 -2.5 2.9 -0.52 0 -0.64 0.92 0.18 0.9a3.3 3.3 0 0 0 3.34 -3.08zm-4.88 -4.78a3.52 3.52 0 0 0 1.64 1.46 0.42 0.42 0 0 0 0.4 -0.72 4.5 4.5 0 0 1 -1.06 -1.16 7.56 7.56 0 0 0 1.56 -2.22 0.4 0.4 0 0 0 -0.2 -0.54c-0.54 -0.26 -0.48 0.4 -2.1 2 -0.42 0.5 -0.42 0.76 -0.24 1.18zm0.54 -3.06c0.58 -1.7 -1 -2.24 -1.58 -0.54s0.98 2.26 1.58 0.54zm5.56 1.6c0.6 -1.7 -0.98 -2.24 -1.58 -0.56s0.98 2.32 1.58 0.56zm0.24 -2.7a1.46 1.46 0 0 1 0.82 0.8 0.5 0.5 0 0 0 0.96 -0.22c-0.18 -1.42 -2 -2.26 -2.96 -1.32a0.5 0.5 0 0 0 0.48 0.82c0.2 -0.06 0.2 -0.24 0.7 -0.08zM127.52 301.62a202 202 0 0 0 -45.32 -26 210.38 210.38 0 0 1 -25.36 -11.12c-8.46 -4.7 -23.54 -14.52 -29.5 -27.54a19.82 19.82 0 0 1 -1.78 -13.16 0.44 0.44 0 0 0 -0.84 -0.22 20.16 20.16 0 0 0 1.58 13.84c6.44 14.68 23.14 24.86 30 28.56a185.44 185.44 0 0 0 24 10.28 223.44 223.44 0 0 1 46.5 26.68c18.68 14.28 28.58 24.78 46.12 59.54 1.16 2.28 2.46 4.86 4.6 8.84a0.46 0.46 0 1 0 0.84 -0.36c-16.48 -32.66 -23.78 -48.62 -50.84 -69.34z" stroke-width="2"></path><path d="M381.64 284.54a0.76 0.76 0 0 0 -0.52 -0.38c-0.8 -0.24 -0.9 -0.3 -1.86 -1.36a4.56 4.56 0 0 0 -1.46 -1.24 116.18 116.18 0 0 0 -5.22 -14.96c-6.64 -15.56 -15.36 -25.52 -27.42 -31.32a4.54 4.54 0 0 0 -2 -7.4c-1.76 -0.88 -2.76 -1.78 -2.74 -2.44 0 -1.44 5.02 -1.64 5.8 -5.54a5.48 5.48 0 0 0 -3.02 -6c-1.52 -1 -2.84 -2.18 -3.46 -6.56a4.36 4.36 0 0 0 -2.82 -4 5.22 5.22 0 0 0 -4.74 1.08 3.56 3.56 0 0 0 -2 -2 4.72 4.72 0 0 0 -5.52 1.7c-2.96 3.2 -7.5 0.74 -10.4 4.92 -1.34 2 -1.28 4.54 0.16 8.26 0.76 2 0.6 3.1 -2.34 4.3a6.98 6.98 0 0 0 -4.28 5.2 7.5 7.5 0 0 0 2.72 6.68 42.16 42.16 0 0 0 -17.42 10.28c-6.86 -3 -18.76 -1.5 -21.78 -3.26a3.66 3.66 0 0 0 -3 -2 8.5 8.5 0 0 1 -0.26 -1.86c0.8 -0.3 1.62 -0.7 1.6 -1.1 -1.3 -22.46 -5.28 -56.54 -26.5 -63.88a4 4 0 0 0 -1.42 -1.62 0.7 0.7 0 0 1 0 -0.16c1.8 1.44 4.42 -0.26 4.38 -2.74a5.88 5.88 0 0 0 6.12 -3.72c1.68 3.2 5.26 -0.54 3.22 -6.12 -0.94 -2.56 -3.32 -5.06 -6.26 -4.48 -0.78 0.16 -1.24 -0.6 -0.18 -0.88a6.34 6.34 0 0 1 7.1 4.06c0.22 0.64 2.14 0 1.12 -3.46a6.42 6.42 0 0 0 -4.6 -4.24 9.24 9.24 0 0 0 -5.68 0.38c-0.96 0.32 -0.88 -0.26 -0.48 -0.5a7.06 7.06 0 0 1 3.64 -0.94c0.34 0 0.4 -0.34 0.22 -0.52a6.54 6.54 0 0 0 -4.5 -2c-3.54 -0.12 -7.72 2.32 -8 5.66a11.2 11.2 0 0 0 -1.1 0.54 2 2 0 0 0 -1.32 0 0.68 0.68 0 0 0 -0.32 1.1 15.24 15.24 0 0 0 -5 6.62c-1.58 0 -3.36 1.58 -3.52 5.52a4.14 4.14 0 0 0 -2.12 4c-18 0.96 -30.78 0.68 -46.66 -3.44 -0.5 -1.58 -1.24 -1.66 -1.34 -2s0.42 -1.52 0 -2a0.72 0.72 0 0 0 -0.52 -0.24 1.42 1.42 0 0 0 -1.06 0.62c-1.14 -1.38 -2 -2.16 -2.56 -2.12a0.6 0.6 0 0 0 -0.48 0.3 1.22 1.22 0 0 0 0 1.14l-0.52 -0.3c-1.44 -0.68 -2.22 0 -1.28 1.46 -0.62 0 -0.98 0.24 -1.02 0.7s0.62 1.4 1.46 2c-0.58 0.1 -1.18 0.3 -1.26 0.78 -0.18 1.08 1.7 1.38 2.78 1.44a5.3 5.3 0 0 0 2.8 1.5 9.02 9.02 0 0 0 -0.8 2.4 0.46 0.46 0 0 0 0 0.42 69.68 69.68 0 0 0 42.68 20.94v0.56a21.76 21.76 0 0 0 -14.58 13.46c-11.88 -1.16 -22.92 1.46 -30.3 7.24 -6 4.7 -10 12 -11.64 22 -8.8 -2.82 -9.32 -2.24 -17.36 -4.26 3.52 -22.76 0 -43.86 -10.12 -59.48a19.28 19.28 0 0 0 7.88 -12.5 0.44 0.44 0 0 0 -0.14 -0.4 66.76 66.76 0 0 1 -12 -14c12.62 5.22 16.76 4.42 31.44 14.42a0.44 0.44 0 0 0 0.44 0 7.24 7.24 0 0 0 1.18 -0.78 6.16 6.16 0 0 0 1.44 1.26c0.46 2.12 2.46 3.16 2.5 1.4 0.52 0.46 1.3 1.08 1.74 0.54a1.28 1.28 0 0 0 0.14 -1.08c1.14 0.48 2 -0.24 0.9 -1.66a0.82 0.82 0 0 0 0.58 -0.34c0.54 -0.78 -0.66 -1.64 -1.44 -2.16 0.64 -0.36 1.32 -0.96 1.38 -1.52a0.72 0.72 0 0 0 -0.36 -0.72c-0.72 -0.4 -1.08 0.48 -2.78 0.26s-0.92 0.64 -0.64 -1.52a0.54 0.54 0 0 0 0 -0.32C153.64 136 131.54 110 111.7 110c-0.6 0 -0.98 0 -1.04 0.4a11.62 11.62 0 0 0 -1.44 0 9.62 9.62 0 0 0 -0.16 -1.3c4.7 -2.94 4.76 -9.86 3.34 -15.02 5.18 -7.18 -2.56 -15.68 -8.42 -11 -1.68 -4 -7.16 -2.52 -9.42 1.42a7.34 7.34 0 0 0 -4.4 12c-2.48 2.26 -0.92 6.72 2 7.8 -0.48 4.52 3.66 6.26 6.22 4.54a10.92 10.92 0 0 1 0.14 1.8c-7.62 0 -20.56 2.3 -45.1 -5.14a0.44 0.44 0 0 0 -0.58 0.32h-0.18a5.2 5.2 0 0 0 -2 -2.24l5.82 -86a0.62 0.62 0 0 0 -0.3 -0.54 3.06 3.06 0 0 0 -2.22 -0.18 0.68 0.68 0 0 0 -0.44 0.56l-6 86.66c-1.22 0 -1.64 0.9 -1.12 1.66a1.06 1.06 0 0 0 0.1 1.72 1.06 1.06 0 0 0 0 1.44 1.1 1.1 0 0 0 0.54 1.26l-7.22 102.46c-8.56 1.48 -16.9 4.2 -20.12 13.68 -8 24.2 23.2 61.24 33.48 73.4 32 38 40.56 39.14 48.54 55.14a93.06 93.06 0 0 1 8.8 35.34 0.46 0.46 0 0 0 0.9 0A93.52 93.52 0 0 0 102.88 354c-7.62 -15.36 -18.26 -19.46 -48.64 -55.46 -17.68 -20.96 -40.38 -51.22 -33.44 -72 2.8 -8.28 9.54 -11.14 18.84 -12.8l-1.32 18.64a0.98 0.98 0 0 0 0.72 1 5 5 0 0 0 2 0.16 1.02 1.02 0 0 0 0.86 -0.92l1.32 -19.4a118.96 118.96 0 0 1 27.5 0.26 65.84 65.84 0 0 0 11.6 25.08 0.52 0.52 0 0 0 0.26 0.2 24.26 24.26 0 0 0 2.92 0.56 26.3 26.3 0 0 0 2.22 3.48c-2 1.1 -6.86 4 -5.5 5.86s7.1 1.04 10.46 0.28c1.86 -0.44 4.12 -1.16 4.3 -2.1a10.78 10.78 0 0 0 -0.66 -5.18 168.34 168.34 0 0 1 -2.52 -24.1c10 2.44 21.2 6.12 31.24 9.34 5.08 14.22 6 20.94 6.36 21.14 3.16 3.6 8.96 5.74 11.3 4.9a1.66 1.66 0 0 0 1.2 -1.58c0 -2.86 -3.82 -6 -5.26 -7.16a23.2 23.2 0 0 0 0.26 -3.14 10.46 10.46 0 0 0 2.28 -0.98c0.2 -0.2 0.2 -0.14 0.24 -0.34 0.52 -2.5 0.96 -5.06 1.34 -7.62 8.12 2 8.54 1.46 17.34 4.28a96.34 96.34 0 0 0 -0.36 22.3c-1.42 -0.14 -2 0.42 -2 1.76 -0.3 4.34 1.06 4.66 3.5 5.12 0 0.86 0 2 0.14 2.8 -2.22 0.8 -8.26 3.28 -7.42 6.3 0.54 1.52 2.52 2.2 5.74 2 3.76 -0.22 8.8 -1.68 9.02 -2.6a7.84 7.84 0 0 0 -0.12 -4.6c0 -0.88 0.26 -2.62 0.32 -3.64 0.44 0 1.8 -0.38 2 -0.8 0.64 -1.52 1.12 -4 0 -5.3a66 66 0 0 0 9.74 -15.1c6.38 3 13.2 6.6 20.3 10.7a72.62 72.62 0 0 0 11.6 38.66c-1.02 0.82 -0.54 2.26 -0.26 3.06s1.4 3.3 2.56 3.74a7.62 7.62 0 0 0 2.6 0 31.54 31.54 0 0 0 3 3.54c-7.08 8.12 -3.84 11.68 2.28 8.24a21.1 21.1 0 0 0 6.9 -6.46 0.5 0.5 0 0 0 0 -0.38 8.38 8.38 0 0 0 -2.3 -4 33.82 33.82 0 0 0 -1.6 -3.84 7 7 0 0 0 1.08 -0.94 0.58 0.58 0 0 0 0.14 -0.36 7.5 7.5 0 0 0 -2.1 -5.62c0 -2.74 0 -14.34 -0.54 -21.04 14.28 9.7 32.78 23.68 42.46 34.3a298.86 298.86 0 0 0 22.96 22.7 156.66 156.66 0 0 0 3.58 24.82c-4.14 1.48 -7.1 3.74 -7.4 5.66a1.64 1.64 0 0 0 0.7 1.66c2.62 2 11.72 -0.44 13.78 -2.78 0.58 -0.64 0.4 -0.76 0.72 -3.06a56.26 56.26 0 0 1 3.24 -13c12.68 11.36 28.54 25.26 44.76 39.18 0.2 0.18 1.56 0.14 0.68 -0.62 -17.38 -14.98 -29.64 -26 -44.98 -39.8 2.1 -6.3 4 -12.52 3.34 -19.16a38.68 38.68 0 0 0 14.6 5.52c2.78 15.42 10.92 27.54 25.58 38.16 -0.26 7.12 0.7 10.72 2.92 10.98 4 0.5 6 -11.1 4.48 -13.06 -3.84 -4.64 -2.7 -11.68 -6.26 -24.46a38.46 38.46 0 0 0 -6.24 -13.82 63 63 0 0 0 9.68 -4.4 0.26 0.26 0 0 0 0.16 -0.28c-1.04 -15.54 -4.64 -42.84 -11.48 -48a14.12 14.12 0 0 0 4.24 -8.58c6 5.12 14.16 8.52 20.78 14a41.46 41.46 0 0 1 6.78 6.9 1.66 1.66 0 0 1 0.1 1.02 6 6 0 0 0 0.14 2.16 3.76 3.76 0 0 1 0.12 2c-0.46 1.28 1.7 1.54 2.42 -0.66 0.42 0.9 0.94 2.7 1.84 2.52 0.44 0 0.62 -0.6 0.58 -1.66a2.54 2.54 0 0 0 1.38 0.48c0.84 0 1.32 -0.68 1.16 -1.2s-0.54 -0.54 -0.92 -0.72a5.4 5.4 0 0 0 0 -0.82c1.18 0.08 1.66 -0.9 1.42 -1.38zm-213.78 -130a2.76 2.76 0 0 1 -1.14 0.74 0.52 0.52 0 0 0 -0.22 0.94c0.34 0.34 1.26 0.9 1.62 1.28a3.12 3.12 0 0 1 -0.9 -0.38 0.46 0.46 0 0 0 -0.62 0c-0.52 0.58 1.12 1.46 1.38 2.18a5.68 5.68 0 0 1 -1.34 -0.92 0.44 0.44 0 0 0 -0.66 0.58 6 6 0 0 1 0.64 1.3 10 10 0 0 1 -1.28 -1.24 0.44 0.44 0 0 0 -0.76 0.4 6 6 0 0 1 0.16 0.98 3.08 3.08 0 0 1 -0.78 -1.56c0 -0.46 -0.56 -0.3 -1.6 -1.48a9.44 9.44 0 0 0 2 -2.5c1.64 -0.26 1.64 0.48 3.5 -0.24zM111.48 110.8c17.8 0.26 38.46 22.78 52.72 41.72a10.56 10.56 0 0 1 -3.88 5.34c-14 -11.06 -28 -11.58 -37.6 -17.52 -0.72 -0.46 -1.12 0.34 -0.58 0.8a36.4 36.4 0 0 0 5.04 2.6 42.82 42.82 0 0 0 12.46 15.1c-1.72 8.58 -10.66 13.78 -14.66 15.7 -13.66 -14.36 -18.08 -35.22 -13.5 -63.74zm-18.42 -6.94a0.44 0.44 0 0 0 -0.32 -0.52c-2.14 -0.56 -4 -4.78 -1.64 -6.66 0.22 -0.16 0.28 -0.44 0 -0.76a6.68 6.68 0 0 1 3.84 -10.74 0.46 0.46 0 0 0 0.34 -0.24c1.8 -3.26 6.96 -4.82 8.12 -1.18a0.44 0.44 0 0 0 0.74 0.22c4.9 -4.24 11.64 2.4 8 8.84 -0.3 -0.92 -0.64 -1.86 -1.02 -2.76l0.56 -0.44a0.44 0.44 0 0 0 -0.58 -0.68c-3.58 2.9 -7.1 0.68 -10 -1.86 -0.28 -0.24 -0.68 -0.14 -0.76 0.36 -0.3 1.7 -0.38 2.64 -2.66 3.58 -0.34 0.14 -0.26 0.48 -0.1 1.26a8.64 8.64 0 0 1 -0.54 6.6 2.42 2.42 0 0 0 -2.4 0.4c-2.34 2 0 6.48 2.8 5.62a16.22 16.22 0 0 1 0.84 2.7c-1.96 1.4 -5.54 0.18 -5.22 -3.74zm5.12 0.58a2.36 2.36 0 0 0 0.46 -0.54 0.44 0.44 0 0 0 -0.74 -0.48 1.4 1.4 0 0 1 -1.42 0.6 2.44 2.44 0 0 1 -1.2 -4 1.42 1.42 0 0 1 1.6 -0.18 0.48 0.48 0 0 0 0.56 -0.12 8 8 0 0 0 0.86 -8 3.72 3.72 0 0 0 2.78 -3.34c3.08 2.92 6.38 3.7 9.2 2.16 2.96 7.7 2.92 17.42 -5.22 18.68a0.44 0.44 0 1 0 0 0.88 8.56 8.56 0 0 0 3 -0.72 7.86 7.86 0 0 0 0.22 1.26 0.46 0.46 0 0 0 0.38 0.42 10.48 10.48 0 0 0 1.76 0.16l-0.14 0.84c-6 12.64 -8.74 14.92 -10 14.6s-2.12 -3.14 -1.14 -15.02a11.6 11.6 0 0 0 -0.96 -7.2zm-44.52 1.84a110.8 110.8 0 0 0 30.78 5.6c6.26 0.18 10.54 -0.3 13.78 -0.44 -9.06 21.58 -10.44 42.68 -5.34 62.36 -6 0.18 -10.92 -2.58 -14.8 -8.42 0.28 -1.84 4.18 -26.86 12 -42.12a0.5 0.5 0 1 0 -0.84 -0.52 87.18 87.18 0 0 0 -3.88 8.58c-10.9 -2.58 -24.64 -10.82 -32.88 -19.7a16.82 16.82 0 0 0 1.18 -5.34zm-5.42 -1c0.42 -2.62 2.82 -1.76 4 0.68l0.8 0.28c0 0.94 -0.18 1.74 -0.34 2.64l-0.7 -0.14a0.18 0.18 0 0 0 -0.14 0 2.92 2.92 0 0 1 -2 0.64l0.14 -2a1.22 1.22 0 0 0 1.02 0.7 0.16 0.16 0 0 0 0 -0.3c-0.66 0 -1.16 -0.9 -1.48 -2.56 0 -0.16 -0.26 -0.18 -0.3 0 -0.12 0.88 -0.82 2.76 -1.06 2a5.38 5.38 0 0 1 0.06 -1.94zM48 109.5c-0.66 0 -1.24 -0.3 -0.94 -0.86a2 2 0 0 0 1.66 0c0.76 0.34 0.08 0.94 -0.72 0.86zm0.18 -4.94a4.3 4.3 0 0 0 -0.24 1c-1.94 -0.02 -1.68 -1.88 0.2 -1zm-0.28 1.38a8.86 8.86 0 0 0 0 1.04c-1.9 0.2 -1.9 -1.8 -0.04 -0.98zm-1.18 2c0 -0.58 0.72 -0.58 1.28 -0.48a0.44 0.44 0 0 0 0.66 0.3 0.34 0.34 0 0 1 0 0.56c-0.52 0.36 -2 0.18 -1.98 -0.46zM70.42 212a120.96 120.96 0 0 0 -27.16 -0.26L50.18 110a3.74 3.74 0 0 0 1.22 -0.28 4.22 4.22 0 0 0 0.3 2.28c7.58 9.14 22 18.26 33.4 20.14a133.34 133.34 0 0 0 -8 33.36 0.64 0.64 0 0 0 0 0.28 18.12 18.12 0 0 0 4.94 5.76A44.6 44.6 0 0 0 70.42 212zm24.9 30a6.24 6.24 0 0 1 -6.54 0.62 22.88 22.88 0 0 0 -2 -3.24 13.78 13.78 0 0 0 7.88 -1.8 17.48 17.48 0 0 0 0.66 4.42zm-1.56 -25.76c0 -5.32 0.76 -12.68 3.9 -18 1.64 -2.82 5.14 -6.7 7.74 -6.46 5.68 0.46 15.68 24.42 19.06 33.62 -9.84 -3.28 -20.72 -6.84 -30.7 -9.26zm43.8 28c-1.38 0.92 -3.34 0.94 -6.12 0a12 12 0 0 0 -0.76 -3.22 16.36 16.36 0 0 0 7.1 0.32 19.46 19.46 0 0 0 -0.22 2.66zm2.86 -5.06a14.14 14.14 0 0 1 -10.12 0.74c-3.4 -13.46 -16 -48.52 -24.8 -49.24a6.74 6.74 0 0 0 -4.72 1.76c-12 10.14 -8 34.1 -6.72 42 0.16 1 0.3 1.88 0.32 2.2a16.3 16.3 0 0 1 -11.3 1.22c-16.22 -22.8 -16.26 -47.84 0 -65.42a15.28 15.28 0 0 0 10.66 2.52 0.46 0.46 0 0 0 0.42 -0.58c-0.66 -2.44 -1.22 -5 -1.68 -7.58 10.14 3.6 18.84 4 25.86 1.24a51.04 51.04 0 0 0 6.2 7.86 0.42 0.42 0 0 0 0.5 0A32.88 32.88 0 0 0 132 172c10.58 18.22 13.44 40.8 8.42 67zm27.14 30.36a3.5 3.5 0 0 1 -5.2 -0.92c0 -0.74 0 -1.9 -0.12 -2.8a22.86 22.86 0 0 0 5.6 0.2c-0.1 0.86 -0.24 2.46 -0.28 3.34zm2.44 -5.2c-2.84 1.1 -7.48 0.16 -9.26 0 -1.46 -0.32 -2.22 -0.48 -2 -4 0 -0.74 0 -0.92 1.24 -0.72a24.22 24.22 0 0 0 10.12 0.58c0.72 0.7 0.42 2.8 -0.1 4.14zm72.4 -92.46a8.84 8.84 0 0 1 -7.02 5.36 20.24 20.24 0 0 1 -0.28 -2.62 9.16 9.16 0 0 0 4.76 -1.6 4.78 4.78 0 0 0 1.54 -2.22 5.34 5.34 0 0 1 1 1.08zm4.52 -13.06a7.88 7.88 0 0 0 4.96 2.62l0.12 0.56a6.34 6.34 0 0 1 -5.84 4 1.86 1.86 0 0 0 -2 -0.98 7.28 7.28 0 0 1 2.76 -6.2zm-10.7 -6.28a1.48 1.48 0 0 1 0.72 0.76 0.7 0.7 0 0 0 0.96 0.24c0.64 -0.4 0.2 -1.42 -0.26 -2a10.24 10.24 0 0 1 1.04 -0.54c4.56 0.24 3.16 2.74 7.3 4.12a5.68 5.68 0 0 0 0.46 2.82 7.18 7.18 0 0 0 -3.16 7.34c-0.44 0.22 -0.3 1.06 0.46 0.8a1.24 1.24 0 0 1 1.46 0.32 2 2 0 0 1 -0.22 1.76 1.66 1.66 0 0 1 -3 0.2 0.46 0.46 0 0 0 -0.78 0.46l0.14 0.22a8.64 8.64 0 0 0 -0.98 1.68 3.14 3.14 0 0 1 -1.1 1.48 8.92 8.92 0 0 1 -4.66 1.48 0.46 0.46 0 0 0 -0.4 0.28 4.22 4.22 0 0 0 -0.86 -0.4c0 -0.22 0 -0.38 -0.18 -0.66a4.88 4.88 0 0 0 1.56 -0.9 3.78 3.78 0 0 0 4 -4.38 3.6 3.6 0 0 0 -3.16 -5.6 3.26 3.26 0 0 0 -2.88 -1.88 2.88 2.88 0 0 0 -1.74 -1.42 14.8 14.8 0 0 1 5.28 -6.18zm-9.08 12.4c0.18 -0.14 0.3 -0.22 0.3 -0.38 0.64 -5.42 3.28 -5.84 4.76 -3.62 0.26 0.42 1.54 -0.14 2.82 2a0.5 0.5 0 0 0 0.46 0.2 2.42 2.42 0 0 1 2.6 1.26 2.88 2.88 0 0 1 0 2.98c-0.12 0.16 -0.1 0.3 -0.1 0.54a3.04 3.04 0 0 1 -3.26 3.36 0.84 0.84 0 0 0 -0.4 0 3.82 3.82 0 0 1 -5.62 -0.64c-0.12 -0.22 -0.24 -0.4 -0.54 -0.36a2.18 2.18 0 0 1 -2.64 -2 3.6 3.6 0 0 1 1.62 -3.34zm5.08 8.38a9.56 9.56 0 0 0 -2 1.72 5.62 5.62 0 0 1 -0.72 -2.32 4.78 4.78 0 0 0 2.68 0.46zm-59.64 -7.6c-0.16 -0.16 -0.3 -0.14 -0.5 -0.14a3.46 3.46 0 0 1 -1.82 -0.36 4.3 4.3 0 0 1 1.64 -0.2 0.46 0.46 0 0 0 0.24 -0.84c-1.16 -0.6 -2.18 -1.48 -2.18 -1.74a5.88 5.88 0 0 1 1.62 0.68 0.44 0.44 0 0 0 0.52 -0.72 7.22 7.22 0 0 1 -1.46 -1.66 10.2 10.2 0 0 1 2.3 1.52 0.44 0.44 0 0 0 0.62 -0.62 8.68 8.68 0 0 1 -0.92 -1.74 8.14 8.14 0 0 1 1.84 2 5.14 5.14 0 0 0 -0.12 0.8A2 2 0 0 0 174 166a0.38 0.38 0 0 0 0.48 -0.56c-0.52 -0.58 0 -1.54 0.64 -2a0.46 0.46 0 0 0 0.2 -0.38 2.18 2.18 0 0 1 0.38 -1.38c-0.46 2.22 0.52 1.62 1.28 3.48a8.84 8.84 0 0 0 -1.66 2 5.88 5.88 0 0 1 -2.74 -1.44zm28.34 88c-6.86 -4 -13.52 -7.42 -19.8 -10.4a82.58 82.58 0 0 0 3.64 -10.8c2 0.38 12.58 2.42 18.72 0.62a92.76 92.76 0 0 0 -2.56 20.62zm2.32 -47.72a26.92 26.92 0 0 1 14.16 -12.82 0.46 0.46 0 0 0 0.28 -0.4A41.48 41.48 0 0 1 222 176a0.44 0.44 0 0 0 -0.78 -0.42 29.16 29.16 0 0 0 -4.54 15.16 73.36 73.36 0 0 1 -41.76 -20.36 12.98 12.98 0 0 1 2.66 -4.66c14 4 29.38 5.18 47.08 3.46a3.02 3.02 0 0 0 3.28 2 3 3 0 0 0 0.66 0.86 5.2 5.2 0 0 0 1.22 4 0.46 0.46 0 0 0 0.7 0l0.66 -0.64 0.24 0.24a50.22 50.22 0 0 0 -5.72 22 1.88 1.88 0 0 0 0.26 0.84 16 16 0 0 0 4 4 0.76 0.76 0 0 0 1.1 -0.18 24 24 0 0 0 2.62 -4.9 1.58 1.58 0 0 0 0 -0.8 61.6 61.6 0 0 1 -0.44 -20.54 4.92 4.92 0 0 0 0.9 -0.22 6.1 6.1 0 0 0 0.48 1.88 0.5 0.5 0 0 0 0.44 0.26 9.22 9.22 0 0 0 8 -5.7c20.34 7.5 24.2 40.66 25.78 62.72a8.96 8.96 0 0 1 -6.9 0.22 95.6 95.6 0 0 0 -12 -22.26 114.58 114.58 0 0 1 -7.72 -12.42 0.44 0.44 0 0 0 -0.78 0.42 94.18 94.18 0 0 0 6.36 10.96c-1.02 7.32 -3.5 12 -8 15.16 -7.4 -11.42 -21.04 -19.38 -36.56 -21.08zM268 240.44a6.36 6.36 0 0 1 -0.1 2.26 0.42 0.42 0 0 0 -0.78 -0.16l-0.12 0.2a5.42 5.42 0 0 0 0 -0.58 0.38 0.38 0 0 0 -0.76 0c-0.12 0.62 0.2 2 -0.46 2s-0.3 -1.12 -0.16 -1.64a0.42 0.42 0 0 0 -0.78 -0.26c0 0.14 -0.12 0.3 -0.2 0.46s-0.24 1.48 -0.56 1.34 0 -0.84 0 -1.3c0 -1.32 0.1 -2 -0.3 -2.2s-0.9 0.56 -1.26 1 -0.62 0 -0.4 -0.18a1.48 1.48 0 0 0 0.42 -0.72 3.82 3.82 0 0 1 1.38 -2 0.6 0.6 0 0 0 0.16 -0.48 6 6 0 0 0 -0.2 -1.28 8.74 8.74 0 0 0 3.38 -0.12 8.84 8.84 0 0 0 0.2 1.46c-1.14 0.08 -1.62 1.12 0.54 2.2zm-41.46 61.78c-1.62 2.48 -3.14 2.52 -5.02 1.72a31.78 31.78 0 0 0 -2.78 -3.36 21.72 21.72 0 0 0 6.18 -2.12 31.32 31.32 0 0 0 1.6 3.76zm-2 -10.26a8.28 8.28 0 0 1 1.54 4.46c-2.68 2.44 -9.84 3.56 -10.78 3.28a7.36 7.36 0 0 1 -1.82 -3c-0.44 -1.18 -0.48 -1.66 0.14 -2a13.1 13.1 0 0 0 10.86 -2.7zm75.66 60.86a17.18 17.18 0 0 1 -5.22 1.62c-0.62 0 -2 0.12 -2.12 -0.48s0.34 -1.06 1.18 -1.5a0.58 0.58 0 0 0 0.36 -0.62c-1.52 -7.82 -6 -34 -0.76 -45.3a58.66 58.66 0 0 0 13.5 12.56c0.5 13.6 -5.62 21.34 -7 33.72zm-10.36 -51.48a0.26 0.26 0 0 0 0 0.26c0.98 1.38 2 2.7 2.96 4 -2.38 4 -3.42 10.64 -3.06 19.88 -9.52 -8.86 -15.34 -14.72 -22 -22.16 -12 -13.28 -36.18 -30 -43.48 -34.92 -0.78 -7.04 16.52 -30.14 15.88 -40.12 4.88 -2.36 8 -7.72 8.54 -14.82 4.66 7.22 9.06 13.54 12.56 22.58 0.12 0.34 1.34 0.66 1.72 0.74 0.22 1.04 0.3 1.38 0.3 1.4a4.58 4.58 0 0 0 -1.22 1.26c-0.58 0.92 -0.32 1.5 -0.8 2a0.78 0.78 0 0 0 -0.12 1.06c0.48 0.62 1.5 0.22 2.1 -0.28a13.62 13.62 0 0 0 0 2c0.12 1.18 1.06 1.5 1.76 0.14 0.4 1.3 1.3 1.16 1.7 0.28a3.54 3.54 0 0 0 2.56 0c5.6 4.6 10.3 11.34 17.1 14.5 6 2.8 12.92 2.46 21.18 -1.08a65.6 65.6 0 0 0 2 8.26 84 84 0 0 0 -19.74 35.02zm17.28 -54a30 30 0 0 0 0.22 10c-8.12 3.38 -14.6 3.68 -20.38 0.92 -6.9 -3.24 -11.8 -10 -17.38 -14.22 -0.36 -0.24 -0.52 0.12 -1.38 0.18a3.82 3.82 0 0 0 0.74 -1.86 2 2 0 0 0 1.26 0.9c0.64 0.16 0.8 -0.56 0.26 -0.76a1.54 1.54 0 0 1 -0.9 -1.86 0.46 0.46 0 0 0 -0.28 -0.5 6.36 6.36 0 0 1 -1.58 -0.84c0.82 0 2.78 0.64 3.02 1.7a0.38 0.38 0 0 0 0.18 0.28c3.54 2.5 18 0.1 24.36 4.88 0.54 0.4 1.1 -0.34 0.52 -0.78a12.56 12.56 0 0 0 -1.5 -1.04 43.04 43.04 0 0 1 22.34 -11.12c-3.06 2.64 -8.5 8.36 -9.56 14.06zm12.94 -14.7c2 -0.22 2.18 0 2.26 -0.88 0 -0.22 0.18 -1.48 0.26 -2.14a9.18 9.18 0 0 0 2.9 0.78 0.44 0.44 0 1 0 0.16 -0.88c-8.22 -1.52 -6.26 -10 -3.2 -17.82h0.72c-0.6 0.2 -1.24 0.8 -0.78 1.24a0.5 0.5 0 0 0 0.68 0 1.16 1.16 0 0 1 1.56 0 0.48 0.48 0 0 0 0.66 0.24c0.6 -0.28 0.2 -1.48 -1.08 -1.66a9.24 9.24 0 0 0 5.06 -2 10.36 10.36 0 0 0 5.6 6.78 6.6 6.6 0 0 1 -2.16 5.78c-2.92 2.4 -1.66 7.88 0.66 10.52 0.12 0.14 0.12 0 1.6 0.28 -6.28 10.16 -16.96 10.56 -14.96 -0.3zm22.18 90.94c5.06 7.18 7.32 17.86 8.74 26.56a35.24 35.24 0 0 0 2.44 9.62c-0.68 4 -2.56 7.12 -4 3.24 -0.3 -0.78 -9.24 -6.16 -16.78 -17.4a58 58 0 0 1 -8.5 -20 41.18 41.18 0 0 0 18.04 -2.08zm37.68 -35.64a3.02 3.02 0 0 1 -1.32 -0.82 5.72 5.72 0 0 0 -0.12 -0.62c-0.26 -0.74 -0.94 -0.28 -0.84 0.16a9.82 9.82 0 0 1 0.34 1.32c0 0.4 -0.28 0.76 -0.46 0.36 -0.38 -0.84 -0.72 -1.9 -0.92 -2.2s-0.82 -0.58 -1 0.38a2 2 0 0 1 -0.74 1.46c0.32 -1.26 -0.56 -2.44 -0.26 -4.18a2.46 2.46 0 0 0 -0.28 -1.68 40.68 40.68 0 0 0 -6.92 -7c-7.18 -6 -16.92 -10.6 -21.68 -14.76 -8.78 -7.68 -9.4 -25.52 -6.48 -26.58a46.44 46.44 0 0 1 4.78 2c13.46 6.6 21.6 17.72 27.56 31.32a132.84 132.84 0 0 1 5.42 14.9 0.42 0.42 0 0 0 0.34 0.3c0.5 0.12 1.04 1.24 2 2 -0.34 0 -0.4 0.44 -0.3 0.78s0.14 0.58 0.2 0.88c-0.4 -0.5 -0.96 -0.1 -0.72 0.36a2.84 2.84 0 0 0 1.6 1.14c0.26 0.12 0.1 0.54 -0.26 0.42zm0 -2.88c-0.2 -0.64 -0.28 -0.32 0.64 0a1.26 1.26 0 0 1 -0.56 -0.06z" stroke-width="2"></path></g></svg>