<svg xmlns="http://www.w3.org/2000/svg" width="150" height="209" fill="none" viewBox="0 0 150 209"><path fill="#512da8" d="M149.47 43.84v19.91H0V43.84h48.17l-11.15-9.16 15.84-19.2 9.48 7.72V0h24.77v23.21l9.48-7.72 15.84 19.2-11.15 9.16h48.17zm0 39.83v109.64H0V83.67zm-19.91 19.91H19.92v69.81h109.64zm-70.43 39.53 15.61 15.61 15.61-15.61 6-6.01c4.31-4.31 4.31-11.3 0-15.61a11 11 0 0 0-7.8-3.24c-2.82 0-5.66 1.08-7.81 3.24l-6.01 6.01-6.01-6.01a11 11 0 0 0-7.8-3.24c-2.82 0-5.66 1.08-7.81 3.24-4.31 4.31-4.31 11.3 0 15.61l6.01 6.01z"/></svg>