<svg xmlns="http://www.w3.org/2000/svg" fill="none" viewBox="0 0 14 14" id="Credit-Card-Receive--Streamline-Flex" height="14" width="14"><desc>Credit Card Receive Streamline Icon: https://streamlinehq.com</desc><g id="credit-card-receive"><path id="Union" fill="#512da8" fill-rule="evenodd" d="m7.00003 7.19009 -0.01876 -0.00023c-0.29146 -0.00396 -0.58203 -0.10082 -0.82977 -0.29058 -0.70722 -0.54174 -1.20558 -0.97715 -1.91295 -1.88081 -0.25531 -0.32617 -0.19788 -0.79755 0.12829 -1.05287 0.32617 -0.25532 0.79756 -0.19788 1.05288 0.12829 0.31226 0.39892 0.56939 0.68512 0.83031 0.93409l0 -4.027981c0 -0.414214 0.33579 -0.749999 0.75 -0.749999 0.41422 0 0.75 0.335787 0.75 0.75l0 4.02773c0.26083 -0.24891 0.51789 -0.53506 0.83005 -0.93384 0.25531 -0.32617 0.7267 -0.38361 1.05287 -0.12829 0.32617 0.25532 0.38365 0.7267 0.12829 1.05287 -0.70736 0.90366 -1.20573 1.33907 -1.91295 1.88081 -0.24766 0.18971 -0.53813 0.28657 -0.82951 0.29058l-0.01875 0.00023ZM2.6632 3.37268c0.20537 -0.03823 0.41632 -0.07745 0.64462 -0.11541 -0.60627 0.70863 -0.65049 1.76899 -0.05351 2.53163 0.18515 0.23654 0.35887 0.44552 0.5263 0.6345H0.5v-0.92085c0 -1.04754 0.78815 -1.88524 1.75852 -2.0559 0.13381 -0.02354 0.26663 -0.04826 0.40468 -0.07397Zm2.72823 4.51886c-0.09611 -0.07362 -0.18926 -0.14596 -0.28022 -0.21814H0.5v3.8137c0 1.0653 0.82326 1.8995 1.80959 2.0753 0.11679 0.0209 0.23321 0.0425 0.35361 0.065l0.00002 0C3.60837 13.8033 4.6719 14 7 14s3.3916 -0.1967 4.3368 -0.3726l0.0033 -0.0007c0.1192 -0.0222 0.2346 -0.0436 0.3503 -0.0643 0.9863 -0.1758 1.8096 -1.01 1.8096 -2.0753V7.6734H8.88869c-0.09096 0.07218 -0.18411 0.14452 -0.28022 0.21814 -0.46037 0.35265 -1.00928 0.53908 -1.5663 0.54805l-0.08412 0.00001c-0.55711 -0.00891 -1.10614 -0.19533 -1.56662 -0.54806ZM10.7456 5.7889c-0.1852 0.23654 -0.3589 0.44552 -0.5263 0.6345H13.5V5.26689c0 -0.89722 -0.6006 -1.72148 -1.5237 -1.87565 -0.3655 -0.06103 -0.8122 -0.12667 -1.3307 -0.18641 0.6501 0.7079 0.7119 1.80238 0.1 2.58407Zm-2.31542 4.7262c0 -0.3452 0.27982 -0.62502 0.625 -0.62502h2.03252c0.3451 0 0.625 0.27982 0.625 0.62502s-0.2799 0.625 -0.625 0.625H9.05518c-0.34518 0 -0.625 -0.2798 -0.625 -0.625Z" clip-rule="evenodd" stroke-width="1"></path></g></svg>
