<svg width="311" height="61" viewBox="0 0 311 61" fill="none" xmlns="http://www.w3.org/2000/svg">
<path d="M301.477 18.288C301.477 16.4 302.533 15.344 304.421 15.344H307.428C309.316 15.344 310.372 16.4 310.372 18.288V47.856C310.372 56.336 303.717 60.176 295.109 60.176C292.389 60.176 289.445 59.792 286.469 59.024C284.773 58.608 283.973 57.456 283.973 55.728V54.544C283.973 52.464 285.188 51.536 287.236 51.984C289.7 52.528 292.004 52.88 294.148 52.88C298.468 52.88 301.477 51.44 301.477 47.856V47.184C299.909 47.312 298.405 47.376 296.997 47.376C285.797 47.376 279.141 43.28 279.141 31.088V18.288C279.141 16.4 280.197 15.344 282.085 15.344H285.092C286.98 15.344 288.036 16.4 288.036 18.288V30.544C288.036 37.744 290.533 39.888 296.741 39.888C298.117 39.888 299.685 39.792 301.477 39.6V18.288Z" fill="black"/>
<path d="M263.617 4.944C263.617 3.056 264.673 2 266.561 2H269.569C271.457 2 272.513 3.056 272.513 4.944V37.328C272.513 44.496 268.513 47.376 259.169 47.376C247.937 47.376 241.281 43.216 241.281 31.056C241.281 18.864 247.937 14.768 259.169 14.768C260.577 14.768 262.081 14.832 263.617 14.96V4.944ZM258.561 39.888C263.105 39.888 263.617 38.576 263.617 35.984V22.608C261.729 22.352 260.065 22.224 258.625 22.224C252.673 22.224 250.177 24.336 250.177 31.056C250.177 37.68 252.673 39.888 258.561 39.888Z" fill="black"/>
<path d="M226.43 4.944C226.43 3.056 227.486 2 229.374 2H232.382C234.269 2 235.326 3.056 235.326 4.944V37.328C235.326 44.496 231.326 47.376 221.982 47.376C210.75 47.376 204.094 43.216 204.094 31.056C204.094 18.864 210.75 14.768 221.982 14.768C223.39 14.768 224.894 14.832 226.43 14.96V4.944ZM221.374 39.888C225.918 39.888 226.43 38.576 226.43 35.984V22.608C224.542 22.352 222.878 22.224 221.438 22.224C215.486 22.224 212.99 24.336 212.99 31.056C212.99 37.68 215.486 39.888 221.374 39.888Z" fill="black"/>
<path d="M189.232 18.288C189.232 16.4 190.288 15.344 192.176 15.344H195.185C197.073 15.344 198.129 16.4 198.129 18.288V32.56C198.129 44.048 192.337 47.376 182.384 47.376C172.432 47.376 166.641 44.048 166.641 32.56V18.288C166.641 16.4 167.697 15.344 169.585 15.344H172.592C174.48 15.344 175.536 16.4 175.536 18.288V32.688C175.536 38.32 177.584 39.888 182.384 39.888C187.184 39.888 189.232 38.32 189.232 32.688V18.288Z" fill="black"/>
<path d="M150.159 4.944C150.159 3.056 151.215 2 153.103 2H156.271C158.159 2 159.215 3.056 159.215 4.944V43.856C159.215 45.744 158.159 46.8 156.271 46.8H153.103C151.215 46.8 150.159 45.744 150.159 43.856V4.944Z" fill="black"/>
<path d="M127.223 47.376C116.759 47.376 111.031 41.456 111.031 31.088C111.031 20.688 116.759 14.768 127.223 14.768C137.687 14.768 143.415 20.688 143.415 31.088C143.415 41.456 137.687 47.376 127.223 47.376ZM127.223 39.888C132.023 39.888 134.391 37.232 134.391 31.088C134.391 24.88 132.023 22.256 127.223 22.256C122.423 22.256 120.055 24.88 120.055 31.088C120.055 37.232 122.423 39.888 127.223 39.888Z" fill="black"/>
<path d="M78.896 46C77.168 45.584 76.368 44.464 76.368 42.736V41.52C76.368 39.472 77.584 38.544 79.632 38.928C87.792 40.432 97.04 40.432 97.04 35.216C97.04 33.296 95.888 31.824 91.408 30L87.408 28.272C79.472 24.848 76.624 21.264 76.624 15.984C76.624 5.42398 88.144 2.76798 101.136 5.77598C102.864 6.19198 103.696 7.27998 103.696 9.03998V10.352C103.696 12.368 102.48 13.36 100.432 13.008C92.752 11.728 85.616 11.632 85.616 15.824C85.616 17.68 86.832 19.184 90.896 20.816L94.608 22.384C102.64 25.776 106.064 29.232 106.064 35.216C106.064 47.056 92.144 49.232 78.896 46Z" fill="black"/>
<mask id="mask0_105_221" style="mask-type:luminance" maskUnits="userSpaceOnUse" x="0" y="0" width="69" height="61">
<path d="M27.0721 12.0942C27.0721 12.0942 25.577 9.78835 23.0538 8.66676C20.5305 7.54516 19.4112 7.6078 17.7354 7.60308C16.0595 7.59835 11.2883 8.71048 8.75317 13.7488C6.21806 18.7871 9.06518 24.0747 11.1169 25.8038C12.0104 26.5567 13.5645 28.554 18.3263 28.6403C23.088 28.7266 26.1739 24.4837 28.1358 22.3764C30.5019 19.8342 39.0255 8.44693 40.5454 6.77577C43.5981 3.41927 50.7768 -2.19814 58.037 1.57556C65.6683 5.5419 68.8204 11.0494 68.0829 17.8853C67.6716 21.698 65.6222 26.4208 64.1827 28.9949C62.6321 31.7675 58.388 37.4878 56.737 39.3953C55.6248 40.68 51.3051 45.8471 46.3365 50.5048C40.6364 55.848 34.2815 60.6689 34.2815 60.6689C34.2815 60.6689 29.2976 57.5511 25.0629 53.9322C21.58 50.9563 19.3155 47.9839 18.9172 46.7229C18.5319 45.5032 19.5672 41.6456 22.3446 41.4045C25.122 41.1622 25.4754 42.5296 27.7812 45.1864C30.087 47.8433 33.713 50.4209 34.0451 50.5048C34.3772 50.5887 39.2028 46.4061 41.2545 44.3591C47.7347 37.8943 55.8517 28.8412 58.3916 21.4309C59.4765 18.2671 59.7649 13.6282 56.737 11.2669C53.709 8.90549 49.9637 7.66808 46.5729 11.0305C43.1821 14.3929 36.0649 24.9056 35.227 26.0402C34.389 27.1748 30.9451 32.2367 25.2993 34.9042C19.6535 37.5728 13.5409 36.6155 9.46229 34.1951C5.38485 31.7746 0.201182 27.3934 0.00735621 19.5399C-0.193561 11.3957 3.71369 3.3779 12.6533 0.748251C15.465 -0.0790557 21.4831 -0.654625 25.6539 1.45737C29.8247 3.56937 32.4969 6.0702 32.7451 6.89396C32.9933 7.71772 30.3955 10.2753 30.0268 10.5577C29.658 10.839 28.3875 12.0055 27.0721 12.0942Z" fill="white"/>
</mask>
<g mask="url(#mask0_105_221)">
<path d="M94.793 -22.5345H-14.1751V81.4697H94.793V-22.5345Z" fill="#512da8"/>
</g>
</svg>
