<svg xmlns="http://www.w3.org/2000/svg" width="1454" height="314" fill="none" viewBox="0 0 1454 314"><path fill="#512da8" d="M188.2 313.736H88.56c-48.83 0-88.56-39.73-88.56-88.56 0-23.67 9.21-45.91 25.94-62.62 16.71-16.72 38.95-25.94 62.62-25.94h17.56v44.13H88.56c-11.87 0-23.03 4.62-31.41 13.01-8.4 8.39-13.02 19.54-13.02 31.42 0 24.5 19.93 44.43 44.43 44.43h55.51V89.986c0-24.15 9.94-47.74 27.28-64.71 17.13-16.78 39.6-25.7 63.15-25.26 22.95.48 44.53 9.68 60.76 25.92 16.72 16.71 25.94 38.95 25.94 62.62v144.599h-44.13v-144.6c0-11.87-4.62-23.03-13.01-31.41-8.15-8.15-18.96-12.77-30.47-13.01-11.66-.25-22.76 4.26-31.35 12.67-8.91 8.73-14.03 20.83-14.03 33.19v223.741z"/><path fill="#512da8" d="M324.09 269.605h-99.03v44.13h99.03z"/><path fill="#1f1e1a" d="M1405.39 105.83h48.32l-62.74 156.462c-8.01 20.559-25.9 33.642-46.19 33.642-13.09 0-28.84-5.607-39.25-14.151l16.55-33.909c4.27 3.738 9.88 6.141 15.49 6.141 5.87 0 10.95-2.67 13.88-9.345l2.41-5.607-52.87-133.233h49.39l27.51 79.833zm-161.51-56.07h43.25V242h-43.25v-11.214c-9.88 9.078-22.97 14.418-37.92 14.418-37.11 0-65.15-30.705-65.15-71.289s28.04-71.289 65.15-71.289c14.95 0 28.04 5.34 37.92 14.418zm-29.37 153.525c16.82 0 29.37-12.549 29.37-29.37s-12.55-29.37-29.37-29.37-29.11 12.549-29.11 29.37 12.29 29.37 29.11 29.37M1075.96 49.76h43.25V242h-43.25v-11.214c-9.88 9.078-22.96 14.418-37.92 14.418-37.11 0-65.144-30.705-65.144-71.289s28.034-71.289 65.144-71.289c14.96 0 28.04 5.34 37.92 14.418zm-29.37 153.525c16.82 0 29.37-12.549 29.37-29.37s-12.55-29.37-29.37-29.37-29.1 12.549-29.1 29.37 12.28 29.37 29.1 29.37m-157.838 41.919c-39.249 0-65.148-22.962-65.148-57.672V105.83h43.254v75.561c0 13.35 8.811 21.894 21.894 21.894s21.894-8.544 21.894-21.894V105.83H953.9v81.702c0 34.71-25.899 57.672-65.148 57.672M753.521 242V49.76h43.254V242zm-94.408 3.204c-42.186 0-73.692-30.705-73.692-71.289s31.506-71.289 73.692-71.289c41.919 0 73.692 30.705 73.692 71.289s-31.773 71.289-73.692 71.289m0-41.919c16.554 0 29.103-12.549 29.103-29.37s-12.549-29.37-29.103-29.37c-16.821 0-29.37 12.549-29.37 29.37s12.549 29.37 29.37 29.37m-160.275 41.919c-28.836 0-60.075-11.481-79.833-28.836l23.496-34.977c15.486 13.617 37.38 22.962 56.07 22.962 14.685 0 27.234-5.874 27.234-15.219 0-9.879-14.418-13.617-34.176-18.423-38.448-9.345-65.148-27.501-65.148-60.075 0-33.91 29.103-56.07 72.624-56.07 28.569 0 52.332 9.879 66.216 22.695l-21.093 34.977c-10.947-9.879-28.836-16.821-45.657-16.821-14.685 0-24.831 5.607-24.831 13.617 0 9.345 14.418 14.418 30.705 18.156 16.02 3.471 68.352 16.287 68.352 60.075 0 34.71-32.307 57.939-73.959 57.939"/></svg>