<svg xmlns="http://www.w3.org/2000/svg" width="325" height="314" fill="none" viewBox="0 0 325 314"><path fill="#512da8" d="M188.2 313.736H88.56c-48.83 0-88.56-39.73-88.56-88.56 0-23.67 9.21-45.91 25.94-62.62 16.71-16.72 38.95-25.94 62.62-25.94h17.56v44.13H88.56c-11.87 0-23.03 4.62-31.41 13.01-8.4 8.39-13.02 19.54-13.02 31.42 0 24.5 19.93 44.43 44.43 44.43h55.51V89.986c0-24.15 9.94-47.74 27.28-64.71 17.13-16.78 39.6-25.7 63.15-25.26 22.95.48 44.53 9.68 60.76 25.92 16.72 16.71 25.94 38.95 25.94 62.62v144.599h-44.13v-144.6c0-11.87-4.62-23.03-13.01-31.41-8.15-8.15-18.96-12.77-30.47-13.01-11.66-.25-22.76 4.26-31.35 12.67-8.91 8.73-14.03 20.83-14.03 33.19v223.741z"/><path fill="#512da8" d="M324.09 269.605h-99.03v44.13h99.03z"/></svg>