<svg width="69" height="61" viewBox="0 0 69 61" fill="none" xmlns="http://www.w3.org/2000/svg">
<mask id="mask0_105_206" style="mask-type:luminance" maskUnits="userSpaceOnUse" x="0" y="0" width="69" height="61">
<path d="M27.0721 12.0942C27.0721 12.0942 25.577 9.78835 23.0538 8.66676C20.5305 7.54516 19.4112 7.6078 17.7354 7.60308C16.0595 7.59835 11.2883 8.71048 8.75317 13.7488C6.21806 18.7871 9.06518 24.0747 11.1169 25.8038C12.0104 26.5567 13.5645 28.554 18.3263 28.6403C23.088 28.7266 26.1739 24.4837 28.1358 22.3764C30.5019 19.8342 39.0255 8.44693 40.5454 6.77577C43.5981 3.41927 50.7768 -2.19814 58.037 1.57556C65.6683 5.5419 68.8204 11.0494 68.0829 17.8853C67.6716 21.698 65.6222 26.4208 64.1827 28.9949C62.6321 31.7675 58.388 37.4878 56.7369 39.3953C55.6248 40.68 51.3051 45.8471 46.3365 50.5048C40.6364 55.848 34.2815 60.6689 34.2815 60.6689C34.2815 60.6689 29.2976 57.5511 25.0629 53.9322C21.58 50.9563 19.3155 47.9839 18.9172 46.7229C18.5319 45.5032 19.5672 41.6456 22.3446 41.4045C25.122 41.1622 25.4754 42.5296 27.7812 45.1864C30.087 47.8433 33.713 50.4209 34.0451 50.5048C34.3772 50.5887 39.2028 46.4061 41.2545 44.3591C47.7347 37.8943 55.8517 28.8412 58.3916 21.4309C59.4765 18.2671 59.7649 13.6282 56.7369 11.2669C53.709 8.90549 49.9637 7.66808 46.5729 11.0305C43.1821 14.3929 36.0649 24.9056 35.227 26.0402C34.389 27.1748 30.9451 32.2367 25.2993 34.9042C19.6535 37.5728 13.5409 36.6155 9.46229 34.1951C5.38485 31.7746 0.201182 27.3934 0.00735621 19.5399C-0.193561 11.3957 3.71369 3.3779 12.6533 0.748251C15.465 -0.0790557 21.4831 -0.654625 25.6539 1.45737C29.8247 3.56937 32.4969 6.0702 32.7451 6.89396C32.9933 7.71772 30.3955 10.2753 30.0268 10.5577C29.658 10.839 28.3875 12.0055 27.0721 12.0942Z" fill="white"/>
</mask>
<g mask="url(#mask0_105_206)">
<path d="M94.793 -22.5345H-14.1751V81.4697H94.793V-22.5345Z" fill="#333333"/>
</g>
</svg>
