<svg xmlns="http://www.w3.org/2000/svg" width="24" height="24" fill="none"><desc>X Logo Streamline Icon: https://streamlinehq.com</desc><path fill="#333" fill-rule="evenodd" d="M22.905.304a1 1 0 0 1 .05 1.414l-8.136 8.725 8.98 11.92A1 1 0 0 1 23 23.964h-5.478a1 1 0 0 1-.799-.398l-6.32-8.387-7.894 8.467a1 1 0 1 1-1.463-1.364l8.136-8.725-8.98-11.92A1 1 0 0 1 1 .036h5.479a1 1 0 0 1 .798.398l6.32 8.387L21.49.354a1 1 0 0 1 1.414-.05Zm-10.15 10.724a1 1 0 0 1-.078-.103L5.98 2.035H3.005l15.015 19.93h2.975z" clip-rule="evenodd"/></svg>